<svg xmlns="http://www.w3.org/2000/svg" viewBox="0 0 100 125" enable-background="new 0 0 100 100"><path d="M15.62 36.084l4.18-1.123-3.06-3.06zM19.595 40.06l4.182-1.12-3.062-3.063zM23.57 44.036l4.183-1.12-3.062-3.063zM27.547 48.012l4.182-1.12-3.062-3.062zM31.522 51.988l4.183-1.122-3.06-3.06zM35.5 55.963l4.183-1.118-3.063-3.063zM39.476 59.94l4.183-1.122-3.064-3.06zM43.453 63.918l4.18-1.122-3.06-3.063zM58.758 45.55l3.06 3.06 1.12-4.18zM58.963 40.453l-4.182 1.12 3.062 3.062zM54.987 36.477l-4.182 1.12 3.062 3.06zM51.012 32.5l-4.183 1.12 3.06 3.062zM47.034 28.524l-4.18 1.12 3.06 3.063zM43.058 24.55l-4.18 1.118 3.06 3.062zM39.082 20.572l-4.18 1.12 3.06 3.063zM35.106 16.596l-4.18 1.12 3.06 3.06zM24.146 17.825l-4.184-1.12 1.12 4.182zM19.886 22.034l-4.183-1.12 1.122 4.182zM11.62 28.344l3.75 2.168v-4.33zM29.562 16.32l-2.166-3.75-2.165 3.75zM30.78 19.293l-.957-.956c-1.246-1.246-3.268-1.247-4.515.002l-7.946 7.945c-1.247 1.247-1.247 3.27 0 4.514l.955.956 7.426 7.426 22.753 22.752 1.9-1.898-29.803-29.8c-.935-.936-.936-2.452-.002-3.388l5.28-5.28c.937-.936 2.454-.936 3.39 0l29.8 29.802 1.897-1.898L38.205 26.72l-7.426-7.427zM26.356 24.943l-2.388 2.39c-.702.7-.702 1.84 0 2.54l28.296 28.293 4.927-4.927-28.294-28.297c-.7-.7-1.84-.7-2.54 0zM84.582 75.7c1.246-1.244 1.245-3.268-.002-4.513l-1.784-1.784c.41-.978.315-2.116-.29-3.016l1.825-1.824c2.107-2.108 2.107-5.536 0-7.644l-9.126-9.126c-2.107-2.107-5.536-2.107-7.642 0l-1.825 1.823c-1.24-.832-2.936-.7-4.032.397L49.04 62.68c-1.154 1.152-1.24 2.97-.26 4.223l-.158.156c-1.247 1.245-1.248 3.27 0 4.517L60.55 83.504c1.247 1.247 3.27 1.247 4.515 0l.157-.157c1.183.924 2.86.9 4.015-.07l1.633 1.63c1.246 1.25 3.268 1.246 4.514 0l9.198-9.206zM69.834 50.43c.934-.934 2.445-.933 3.38 0l8.483 8.482c.933.934.933 2.447 0 3.38l-1.602 1.602L68.232 52.03l1.602-1.602zm1.312 26.995c-1.247 1.247-3.27 1.247-4.518 0L54.7 65.492c-1.245-1.245-1.245-3.268.002-4.516l6.474-6.472c1.246-1.246 3.268-1.246 4.516 0l11.928 11.93c1.246 1.246 1.246 3.266 0 4.515l-6.474 6.473zM75.76 68.293L63.832 56.365c-.22-.22-.578-.22-.798 0l-6.472 6.473c-.22.22-.223.577 0 .797L68.49 75.563c.22.222.578.22.8 0l6.47-6.47c.222-.222.22-.58 0-.8z"/></svg>