<svg xmlns="http://www.w3.org/2000/svg" viewBox="0 0 100 125" enable-background="new 0 0 100 100"><path d="M89.81 35.7l-.038-.002c-1.007-.083-1.89.666-1.973 1.673l-.193 2.324-6.732-.682c-.166-.465-.19-.53-.355-.997l6.087-6.088c1.398-1.398 2.414-3.188 2.66-5.15.335-2.68-.56-5.262-2.427-7.128l-7.33-7.332c-1.4-1.4-3.187-2.416-5.15-2.663-2.68-.337-5.266.557-7.133 2.425l-6.666 6.667c-3.124.22-6.2 1.528-8.537 3.866L39.73 34.905c-1.443 1.443-2.182 3.46-1.94 5.486.077.637.185 1.337.34 2.09L11.804 68.81c-4.384 4.386-4.39 11.493-.012 15.885l2.41 2.416c4.387 4.402 11.514 4.408 15.908.014l25.91-25.91c1.088.275 2.094.45 2.98.562 1.984.25 3.968-.478 5.382-1.892l12.46-12.458c1.402-1.402 2.463-3.044 3.152-4.788l7.31.74-.196 2.39c-.083 1.01.666 1.893 1.675 1.976l.036.003c1.008.083 1.892-.666 1.975-1.673l.692-8.4c.083-1.007-.666-1.89-1.673-1.973zM26.13 83.266c-2.264 2.265-5.935 2.265-8.198 0l-2.273-2.273c-2.266-2.265-2.266-5.935 0-8.197l24.478-24.48c1.057 2.137 2.557 4.368 4.688 6.5 1.824 1.824 3.72 3.182 5.563 4.192L26.13 83.265zm51.977-53.29l-9.16-9.16 3.504-3.51c.42-.42 1.177-.42 1.596 0l7.57 7.568c.437.44.437 1.155 0 1.595l-3.51 3.507z"/></svg>