<svg xmlns="http://www.w3.org/2000/svg" xmlns:xlink="http://www.w3.org/1999/xlink" version="1.1" x="0px" y="0px" viewBox="0 0 100 125" enable-background="new 0 0 100 100" xml:space="preserve"><path d="M89.809,35.701l-0.037-0.003c-1.007-0.083-1.89,0.666-1.973,1.673l-0.192,2.323l-6.732-0.682  c-0.166-0.465-0.189-0.531-0.355-0.997l6.087-6.088c1.398-1.398,2.414-3.188,2.659-5.15c0.336-2.68-0.558-5.262-2.426-7.128  l-7.33-7.331c-1.399-1.399-3.187-2.416-5.15-2.663c-2.681-0.337-5.266,0.557-7.133,2.425l-6.666,6.667  c-3.125,0.221-6.2,1.528-8.538,3.866L39.729,34.905c-1.442,1.443-2.181,3.46-1.938,5.486c0.076,0.636,0.184,1.336,0.34,2.089  L11.803,68.81c-4.384,4.386-4.39,11.493-0.012,15.885l2.408,2.416c4.388,4.401,11.515,4.407,15.909,0.013l25.909-25.91  c1.089,0.275,2.095,0.449,2.982,0.562c1.983,0.251,3.967-0.478,5.381-1.892l12.46-12.458c1.402-1.402,2.463-3.044,3.152-4.788  l7.311,0.739l-0.197,2.392c-0.083,1.009,0.666,1.892,1.675,1.975l0.035,0.003c1.008,0.083,1.892-0.666,1.975-1.673l0.691-8.399  C91.565,36.667,90.816,35.784,89.809,35.701z M26.129,83.265c-2.263,2.265-5.934,2.265-8.197,0l-2.273-2.273  c-2.265-2.265-2.265-5.935,0-8.197l24.479-24.48c1.057,2.137,2.557,4.368,4.688,6.499c1.824,1.825,3.719,3.183,5.563,4.193  L26.129,83.265z M78.107,29.975l-9.16-9.159l3.504-3.512c0.419-0.419,1.176-0.419,1.595,0l7.569,7.569  c0.438,0.44,0.438,1.155,0,1.595L78.107,29.975z"/></svg>
