<svg xmlns="http://www.w3.org/2000/svg" xmlns:xlink="http://www.w3.org/1999/xlink" version="1.1" x="0px" y="0px" viewBox="0 0 100 125" enable-background="new 0 0 100 100" xml:space="preserve"><g><polygon points="15.619,36.084 19.8,34.961 16.739,31.9  "/><polygon points="19.595,40.061 23.777,38.939 20.715,35.877  "/><polygon points="23.571,44.036 27.753,42.916 24.691,39.853  "/><polygon points="27.547,48.012 31.729,46.892 28.668,43.83  "/><polygon points="31.522,51.988 35.705,50.866 32.644,47.807  "/><polygon points="35.5,55.963 39.683,54.845 36.62,51.782  "/><polygon points="39.476,59.94 43.659,58.818 40.596,55.758  "/><polygon points="43.453,63.918 47.634,62.796 44.573,59.733  "/><polygon points="58.758,45.549 61.818,48.609 62.939,44.429  "/><polygon points="58.963,40.453 54.781,41.573 57.842,44.635  "/><polygon points="54.987,36.477 50.805,37.598 53.867,40.658  "/><polygon points="51.012,32.5 46.829,33.621 49.89,36.682  "/><polygon points="47.034,28.524 42.853,29.644 45.914,32.707  "/><polygon points="43.058,24.549 38.877,25.668 41.938,28.73  "/><polygon points="39.082,20.572 34.901,21.693 37.962,24.755  "/><polygon points="35.106,16.596 30.925,17.717 33.985,20.777  "/><polygon points="24.146,17.825 19.962,16.705 21.083,20.887  "/><polygon points="19.886,22.034 15.703,20.914 16.825,25.096  "/><polygon points="11.62,28.344 15.37,30.512 15.369,26.182  "/><polygon points="29.562,16.319 27.396,12.569 25.231,16.319  "/><path d="M30.779,19.293l-0.956-0.956c-1.246-1.246-3.268-1.247-4.515,0.002l-7.946,7.946c-1.247,1.247-1.247,3.269-0.001,4.514   l0.956,0.957l7.426,7.426l22.753,22.752l1.899-1.898L20.593,30.236c-0.935-0.936-0.936-2.452-0.002-3.388l5.28-5.28   c0.936-0.936,2.453-0.936,3.389,0.001l29.8,29.801l1.897-1.898L38.205,26.719L30.779,19.293z"/><path d="M26.356,24.943l-2.388,2.389c-0.702,0.701-0.702,1.84,0,2.541l28.296,28.293l4.927-4.927L28.896,24.943   C28.195,24.244,27.057,24.244,26.356,24.943z"/><path d="M84.582,75.701c1.246-1.245,1.245-3.269-0.002-4.514l-1.784-1.784c0.411-0.978,0.315-2.116-0.289-3.016l1.824-1.824   c2.106-2.108,2.106-5.536-0.001-7.644l-9.126-9.125c-2.107-2.107-5.536-2.107-7.642,0l-1.825,1.823   c-1.241-0.832-2.936-0.7-4.032,0.397L49.039,62.68c-1.153,1.152-1.24,2.969-0.26,4.223l-0.157,0.156   c-1.247,1.246-1.248,3.27,0,4.518L60.55,83.504c1.247,1.247,3.269,1.247,4.515-0.001l0.157-0.156c1.183,0.924,2.86,0.9,4.015-0.069   l1.633,1.63c1.246,1.248,3.268,1.245,4.514-0.001L84.582,75.701z M69.834,50.428c0.934-0.934,2.445-0.933,3.379,0.001l8.484,8.481   c0.933,0.934,0.933,2.447,0,3.379l-1.602,1.603L68.232,52.029L69.834,50.428z M71.146,77.423c-1.247,1.247-3.27,1.247-4.518-0.001   L54.701,65.494c-1.246-1.246-1.246-3.269,0.001-4.517l6.474-6.472c1.246-1.246,3.268-1.246,4.516,0l11.928,11.929   c1.246,1.247,1.246,3.267,0,4.516L71.146,77.423z"/><path d="M75.76,68.293L63.832,56.365c-0.22-0.22-0.578-0.221-0.798-0.001l-6.472,6.474c-0.221,0.219-0.223,0.577,0,0.797   l11.927,11.928c0.22,0.222,0.579,0.221,0.8,0l6.472-6.47C75.982,68.871,75.98,68.514,75.76,68.293z"/></g></svg>
