<svg xmlns="http://www.w3.org/2000/svg" xmlns:xlink="http://www.w3.org/1999/xlink" version="1.1" x="0px" y="0px" viewBox="0 0 100 125" enable-background="new 0 0 100 100" xml:space="preserve">
    <g>
        <path d="M16.401,48.221c-2.543,2.288-2.674,4.915-2.722,5.8c-0.272,4.866,3.762,11.635,11.697,19.579l2.31,2.312l-8.16,8.153   c-0.145,0.138-0.279,0.258-0.401,0.364c-0.001-0.118,0.005-0.235,0.022-0.348c0.107-0.771,0.648-3.009,2.794-9.402   c-1.145-1.187-2.176-2.323-3.11-3.41c-3.317,9.737-3.577,11.585-3.669,12.251c-0.231,1.646,0.136,4.02,1.934,5.288l0.208,0.146   l0.24,0.091c1.363,0.517,2.961-0.236,5.174-2.445l10.687-10.684l-5.169-5.172c-9.802-9.807-10.635-14.802-10.536-16.554   c0.025-0.498,0.087-1.665,1.182-2.766c0.063-0.063,0.131-0.127,0.197-0.187c0.751-0.668,3.763-3.078,7.471-6.011l-1.436-4.018   C21.004,44.457,17.307,47.41,16.401,48.221z"/><path d="M27.43,64.388l6.64,6.639c0.79,0.789,2.068,0.789,2.859,0c0.79-0.789,0.789-2.068,0-2.857l-6.641-6.642   c-0.789-0.787-2.069-0.789-2.858,0C26.641,62.317,26.642,63.599,27.43,64.388z"/><path d="M32.241,56.716c-0.79,0.789-0.79,2.068,0,2.858l6.642,6.642c0.789,0.789,2.07,0.787,2.857,0c0.79-0.79,0.79-2.071,0-2.858   l-6.642-6.642C34.309,55.926,33.029,55.926,32.241,56.716z"/><path d="M58.784,48.9l-17.85-17.852c-0.722-0.723-1.869-0.792-2.674-0.164c-0.31,0.243-3.338,2.61-7.054,5.527l-3.151-8.814   c-0.377-1.051-1.535-1.598-2.585-1.223c-1.047,0.375-1.597,1.532-1.223,2.584l7.16,20.021c0.376,1.051,1.533,1.597,2.585,1.223   c0.29-0.104,0.542-0.269,0.747-0.474c0.536-0.535,0.747-1.352,0.475-2.111l-2.573-7.194c2.38-1.872,4.723-3.708,6.7-5.255   l16.642,16.643c0.567,0.528,1.201,1.453,1.201,1.902c0,0.733-0.673,1.679-1.114,2.118c-0.001,0.002-0.001,0.002-0.001,0.002   L24.025,87.873c-4.282,4.284-7.004,3.3-7.151,3.239c-4.042-1.712-3.711-6.44-3.514-7.85c0.273-1.958,2.237-8.137,4.084-13.673   c-1.139-1.426-2.097-2.759-2.903-4.006c-1.96,5.77-4.779,14.351-5.164,17.116c-0.789,5.604,1.485,10.252,5.836,12.093   c0.524,0.255,5.299,2.308,11.649-4.041c0.007-0.007,0.015-0.014,0.021-0.021l32.059-32.056c0.381-0.381,2.281-2.408,2.282-4.96   C61.226,51.26,59.138,49.222,58.784,48.9z"/><path d="M82.141,9.173L82.141,9.173l-0.435,0.435c-0.914-0.597-1.908-1.036-2.955-1.326l0.111-1.029   c0.123-1.109-0.679-2.107-1.79-2.229c-1.109-0.121-2.107,0.681-2.228,1.79l-0.117,1.072c-1.06,0.077-2.125,0.297-3.175,0.638   l-0.32-0.665c-0.487-1.004-1.695-1.424-2.7-0.938c-1.011,0.487-1.426,1.696-0.94,2.701l0.327,0.676   c-0.8,0.539-1.568,1.158-2.283,1.872l-1.255,1.256l-0.403-0.406c-0.788-0.791-2.067-0.792-2.858-0.004   c-0.001,0-0.001,0.001-0.003,0.002c-0.788,0.788-0.789,2.066-0.002,2.857l0.408,0.409l-3.808,3.808l-0.403-0.406   c-0.787-0.791-2.067-0.792-2.858-0.004c-0.001,0-0.001,0.001-0.002,0.002c-0.788,0.788-0.79,2.066-0.002,2.857l0.408,0.409   l-3.807,3.807l-0.408-0.407c-0.788-0.789-2.069-0.789-2.858,0c-0.79,0.79-0.79,2.069,0,2.859l0.407,0.407l-2.002,2.002l2.858,2.858   l19.446-19.446c3.649-3.648,9.024-4.21,11.982-1.251c1.38,1.379,2.036,3.355,1.851,5.563c-0.197,2.336-1.297,4.615-3.1,6.417   c-0.001,0.001-0.001,0.001-0.002,0.001L59.78,45.203l2.857,2.86l2.002-2.001l0.47,0.469c0.788,0.789,2.068,0.789,2.858,0   c0.789-0.79,0.789-2.069,0-2.858l-0.47-0.469l3.807-3.808l0.47,0.469c0.789,0.79,2.069,0.79,2.858,0c0.79-0.79,0.79-2.069,0-2.858   l-0.47-0.469l3.808-3.808l0.471,0.471c0.791,0.787,2.069,0.787,2.858-0.002h0.001c0.787-0.789,0.787-2.07-0.002-2.858l-0.47-0.469   l1.254-1.254c0.001-0.001,0.001-0.001,0.002-0.002c0.657-0.657,1.242-1.366,1.759-2.111l0.916,0.444   c0.795,0.384,1.719,0.202,2.31-0.39c0.156-0.155,0.289-0.339,0.391-0.549c0.486-1.005,0.064-2.214-0.938-2.7l-0.855-0.414   c0.339-0.998,0.569-2.024,0.67-3.064l1.229-0.135c0.476-0.053,0.894-0.265,1.209-0.579c0.417-0.418,0.65-1.017,0.58-1.651   c-0.122-1.109-1.12-1.91-2.23-1.788l-1.064,0.117c-0.299-1.209-0.798-2.333-1.479-3.344l0.42-0.42   c0.788-0.79,0.788-2.07-0.002-2.859C84.208,8.384,82.929,8.385,82.141,9.173z"/><path d="M74.126,16.025c-0.79-0.79-2.069-0.79-2.858,0L50.906,36.389l2.857,2.86l20.363-20.366   C74.915,18.093,74.915,16.814,74.126,16.025z"/>
    </g>
</svg>
